<svg width="640" height="640" viewBox="0 0 640 640" fill="none" xmlns="http://www.w3.org/2000/svg">
<path d="M540 260V380C540 438.348 516.822 494.306 475.564 535.564C434.306 576.822 378.348 600 320 600C261.652 600 205.695 576.822 164.437 535.564C123.179 494.306 100 438.348 100 380V160C100 149.391 104.214 139.217 111.716 131.716C119.217 124.214 129.391 120 140 120C150.609 120 160.783 124.214 168.284 131.716C175.786 139.217 180 149.391 180 160V300C180 305.304 182.107 310.391 185.858 314.142C189.609 317.893 194.696 320 200 320C205.304 320 210.391 317.893 214.142 314.142C217.893 310.391 220 305.304 220 300V80C220 69.3913 224.214 59.2172 231.716 51.7157C239.217 44.2143 249.391 40 260 40C270.609 40 280.783 44.2143 288.284 51.7157C295.786 59.2172 300 69.3913 300 80V280C300 285.304 302.107 290.391 305.858 294.142C309.609 297.893 314.696 300 320 300C325.304 300 330.391 297.893 334.142 294.142C337.893 290.391 340 285.304 340 280V120C340 109.391 344.214 99.2172 351.716 91.7157C359.217 84.2143 369.391 80 380 80C390.609 80 400.783 84.2143 408.284 91.7157C415.786 99.2172 420 109.391 420 120V321.675C392.055 326.439 366.693 340.926 348.395 362.578C330.096 384.23 320.039 411.652 320 440C320 445.304 322.107 450.391 325.858 454.142C329.609 457.893 334.696 460 340 460C345.304 460 350.391 457.893 354.142 454.142C357.893 450.391 360 445.304 360 440C360 418.783 368.429 398.434 383.431 383.431C398.434 368.429 418.783 360 440 360C445.304 360 450.391 357.893 454.142 354.142C457.893 350.391 460 345.304 460 340V260C460 249.391 464.214 239.217 471.716 231.716C479.217 224.214 489.391 220 500 220C510.609 220 520.783 224.214 528.284 231.716C535.786 239.217 540 249.391 540 260Z" fill="black"/>
</svg>
